<svg width="1063" height="1063" viewBox="0 0 1063 1063" fill="none" xmlns="http://www.w3.org/2000/svg">
<rect width="1063" height="1063" fill="white"/>
<path d="M550.257 309.752C554.763 310.688 559.016 312.58 562.731 315.301C566.888 318.591 570.072 322.951 571.943 327.916C583.751 357.44 595.558 386.946 607.367 416.433C620.434 449.229 633.567 482.03 646.765 514.836C653.643 532.037 660.485 549.255 667.47 566.42C668.956 569.931 669.722 573.705 669.722 577.518C669.722 581.331 668.956 585.105 667.47 588.616L607.456 738.227C603.482 748.131 596.284 754.286 585.699 755.892C572.531 757.872 560.752 751.378 555.995 739.833C544.733 712.159 533.721 684.396 522.62 656.651L466.169 515.514C449.455 473.631 432.717 431.76 415.955 389.902C410.396 376.002 405.015 362.031 399.206 348.239C397.606 344.488 396.85 340.432 396.99 336.356C397.13 332.281 398.162 328.286 400.016 324.655C401.869 321.023 404.497 317.844 407.713 315.343C410.93 312.842 414.656 311.079 418.629 310.18C419.11 310.073 419.573 309.895 420.036 309.752H550.257Z" fill="url(#paint0_linear_157_61)"/>
<path d="M316.376 309.752C317.855 310.162 319.334 310.519 320.778 311.019C324.535 312.192 327.982 314.194 330.866 316.877C333.749 319.561 335.994 322.857 337.438 326.524C350.327 358.498 363.157 390.496 375.927 422.518C388.852 454.801 401.776 487.091 414.701 519.386C421.021 535.219 427.371 551.046 433.75 566.866C435.177 570.254 435.913 573.894 435.913 577.571C435.913 581.249 435.177 584.889 433.75 588.277C426.622 606.049 419.494 623.814 412.366 641.573C399.299 674.083 386.232 706.593 373.165 739.102C371.113 744.164 367.607 748.501 363.088 751.563C358.571 754.626 353.246 756.275 347.791 756.303C342.011 756.404 336.341 754.716 331.557 751.468C326.773 748.22 323.107 743.57 321.062 738.157C308.982 707.52 296.651 676.974 284.427 646.391C268.045 604.984 251.581 563.607 235.032 522.259C218.188 480.174 201.349 438.083 184.516 395.986C178.137 380.052 171.811 364.083 165.343 348.167C162.517 341.536 162.38 334.063 164.961 327.332C167.542 320.601 172.638 315.141 179.17 312.107C181.54 311.148 183.976 310.361 186.458 309.752H316.376Z" fill="url(#paint1_linear_157_61)"/>
<path d="M899.062 581.865C895.494 593.909 890.151 605.275 885.608 616.891C872.458 649.935 859.234 682.962 845.938 715.971C842.892 723.537 839.79 731.084 836.834 738.685C834.75 743.879 831.164 748.328 826.524 751.456C821.891 754.583 816.427 756.246 810.836 756.229C805.245 756.212 799.793 754.515 795.178 751.359C790.562 748.202 786.994 743.731 784.947 738.525L727.249 594.32L677.356 469.759C661.069 429.09 644.795 388.426 628.532 347.768C626.985 344.051 626.272 340.039 626.443 336.015C626.614 331.992 627.664 328.055 629.519 324.482C631.375 320.909 633.991 317.787 637.182 315.336C640.373 312.886 644.063 311.166 647.99 310.298C648.525 310.174 649.041 309.995 649.576 309.835H779.798C780.204 309.959 780.597 310.12 781.009 310.209C785.577 311.164 789.829 313.257 793.372 316.295C796.916 319.332 799.642 323.217 801.289 327.588C808.867 346.62 816.457 365.599 824.059 384.524C843.958 434.222 863.838 483.92 883.7 533.619C888.921 546.715 894.731 559.58 899.007 573.033L899.062 581.865Z" fill="url(#paint2_linear_157_61)"/>
<defs>
<linearGradient id="paint0_linear_157_61" x1="376.79" y1="346.008" x2="690.269" y2="659.069" gradientUnits="userSpaceOnUse">
<stop stop-color="#FF00A8"/>
<stop offset="1" stop-color="#6200C6"/>
</linearGradient>
<linearGradient id="paint1_linear_157_61" x1="143.033" y1="345.901" x2="456.441" y2="658.89" gradientUnits="userSpaceOnUse">
<stop stop-color="#FF00A8"/>
<stop offset="1" stop-color="#6200C6"/>
</linearGradient>
<linearGradient id="paint2_linear_157_61" x1="606.276" y1="345.895" x2="919.702" y2="658.902" gradientUnits="userSpaceOnUse">
<stop stop-color="#FF00A8"/>
<stop offset="1" stop-color="#6200C6"/>
</linearGradient>
</defs>
</svg>
